<?xml version="1.0" encoding="UTF-8"?>
<svg width="100pt" height="100pt" transform="scale(1.4)" version="1.1" viewBox="0 0 1200 1200" xmlns="http://www.w3.org/2000/svg">

 <path width="50" height="50" d="m435 980.62c0-91.875 73.125-165 165-165 90 0 165 73.125 165 165v11.25h-330v-11.25zm166.88-202.5 93.75-163.12-39.375 170.62c-18.75-3.75-35.625-7.5-54.375-7.5zm294.38 213.75h-93.75v-11.25c0-78.75-45-148.12-112.5-181.88l69.375-300c1.875-9.375-1.875-18.75-11.25-22.5s-18.75 0-22.5 7.5l-168.75 296.25c-90 20.625-157.5 101.25-157.5 196.88v11.25h-93.75c-31.875-28.125-60-60-82.5-95.625l76.875-45c9.375-5.625 11.25-16.875 7.5-26.25-5.625-9.375-16.875-11.25-26.25-7.5l-76.875 45c-31.875-52.5-48.75-118.12-52.5-183.75h88.125c11.25 0 18.75-7.5 18.75-18.75s-7.5-18.75-18.75-18.75h-88.125c1.875-67.5 20.625-131.25 50.625-189.38l76.875 45c3.75 1.875 5.625 1.875 9.375 1.875 5.625 0 13.125-3.75 16.875-9.375 5.625-9.375 1.875-20.625-7.5-26.25l-76.875-45c35.625-56.25 82.5-103.12 138.75-138.75l45 76.875c3.75 5.625 9.375 9.375 16.875 9.375 3.75 0 5.625 0 9.375-1.875 9.375-5.625 11.25-16.875 7.5-26.25l-45-76.875c56.25-30 120-48.75 189.38-50.625v90c0 11.25 7.5 18.75 18.75 18.75s18.75-7.5 18.75-18.75v-90c67.5 1.875 131.25 20.625 189.38 50.625l-45 76.875c-5.625 9.375-1.875 20.625 7.5 26.25 3.75 1.875 5.625 1.875 9.375 1.875 5.625 0 13.125-3.75 16.875-9.375l45-76.875c56.25 35.625 103.12 82.5 138.75 138.75l-76.875 45c-9.375 5.625-11.25 16.875-7.5 26.25 3.75 5.625 9.375 9.375 16.875 9.375 3.75 0 5.625 0 9.375-1.875l76.875-45c30 56.25 48.75 120 50.625 189.38h-90c-11.25 0-18.75 7.5-18.75 18.75s7.5 18.75 18.75 18.75h88.125c-1.875 67.5-20.625 131.25-50.625 189.38l-76.875-45c-9.375-5.625-20.625-1.875-26.25 7.5s-1.875 20.625 7.5 26.25l76.875 45c-24.375 33.75-52.5 65.625-84.375 93.75z"/>
</svg>
