<?xml version="1.0" encoding="UTF-8"?>
<svg width="1200pt" height="1200pt" version="1.1" viewBox="0 0 1200 1200" xmlns="http://www.w3.org/2000/svg">
 <path d="m66.668 588.33v106.67c0 76.668 218.33 161.67 533.33 161.67s533.33-85 533.33-161.67v-106.67c-85 81.668-315 125-533.33 125s-448.33-43.332-533.33-125z"/>
 <path d="m66.668 261.67v78.332c0 76.668 218.33 161.67 533.33 161.67s533.33-85 533.33-161.67v-78.332c-85 70-315 108.33-533.33 108.33s-448.33-38.332-533.33-108.33z"/>
 <path d="m66.668 766.67v80c0 76.668 218.33 161.67 533.33 161.67s533.33-85 533.33-161.67v-80c-85 81.668-315 125-533.33 125s-448.33-43.336-533.33-125z"/>
 <path d="m66.668 411.67v106.67c0 76.668 218.33 161.67 533.33 161.67s533.33-85 533.33-161.67v-106.67c-85 81.668-315 125-533.33 125s-448.33-43.336-533.33-125z"/>
 <path d="m600 1043.3c-218.33 0-448.33-43.332-533.33-126.66v81.668c0 63.332 218.33 135 533.33 135s533.33-70 533.33-135v-81.664c-85 83.332-315 126.66-533.33 126.66z"/>
 <path d="m600 335c313.33 0 533.33-70 533.33-133.33s-218.33-133.33-533.33-133.33-533.33 70-533.33 133.33 218.33 133.33 533.33 133.33zm366.67-170c36.668 0 66.668 15 66.668 33.332s-30 33.332-66.668 33.332-66.668-15-66.668-33.332 30-33.332 66.668-33.332z"/>
</svg>
